frame:0    pts:0       pts_time:0
lavfi.ssim.R=0.718377
lavfi.ssim.G=0.762703
lavfi.ssim.B=0.886385
lavfi.ssim.All=0.789155
lavfi.ssim.dB=6.760360
frame:1    pts:1       pts_time:1
lavfi.ssim.R=0.705132
lavfi.ssim.G=0.746553
lavfi.ssim.B=0.850161
lavfi.ssim.All=0.767282
lavfi.ssim.dB=6.331696
frame:2    pts:2       pts_time:2
lavfi.ssim.R=0.707298
lavfi.ssim.G=0.748479
lavfi.ssim.B=0.842460
lavfi.ssim.All=0.766079
lavfi.ssim.dB=6.309308
frame:3    pts:3       pts_time:3
lavfi.ssim.R=0.704271
lavfi.ssim.G=0.735419
lavfi.ssim.B=0.830497
lavfi.ssim.All=0.756729
lavfi.ssim.dB=6.139091
frame:4    pts:4       pts_time:4
lavfi.ssim.R=0.713266
lavfi.ssim.G=0.743084
lavfi.ssim.B=0.802936
lavfi.ssim.All=0.753095
lavfi.ssim.dB=6.074705
